<svg width="16" height="15" viewBox="0 0 16 15" fill="none" xmlns="http://www.w3.org/2000/svg">
<g id="gesture-tap">
<path id="Vector" d="M6.66657 5.625C6.66657 5.45924 6.73681 5.30027 6.86183 5.18306C6.98686 5.06585 7.15642 5 7.33324 5C7.51005 5 7.67962 5.06585 7.80464 5.18306C7.92966 5.30027 7.9999 5.45924 7.9999 5.625V8.41875L8.80657 8.5L12.0999 9.86875C12.4532 10.0188 12.6666 10.35 12.6666 10.7125V13.4375C12.6466 13.95 12.2132 14.3562 11.6666 14.375H7.33324C7.0799 14.375 6.8399 14.2812 6.66657 14.1062L3.3999 11.4813L3.89324 11C4.0199 10.8688 4.1999 10.8 4.38657 10.8H4.53324L6.66657 11.875V5.625ZM7.33324 3.125C8.04048 3.125 8.71876 3.38839 9.21885 3.85723C9.71895 4.32607 9.9999 4.96196 9.9999 5.625C9.9999 6.5625 9.46657 7.35625 8.66657 7.7875V7.025C9.07324 6.68125 9.33324 6.18125 9.33324 5.625C9.33324 5.12772 9.12252 4.65081 8.74745 4.29917C8.37238 3.94754 7.86367 3.75 7.33324 3.75C6.8028 3.75 6.29409 3.94754 5.91902 4.29917C5.54395 4.65081 5.33324 5.12772 5.33324 5.625C5.33324 6.18125 5.59324 6.68125 5.9999 7.025V7.7875C5.1999 7.35625 4.66657 6.5625 4.66657 5.625C4.66657 4.96196 4.94752 4.32607 5.44762 3.85723C5.94771 3.38839 6.62599 3.125 7.33324 3.125Z" fill="#FF5C00"/>
</g>
</svg>
