<svg width="296" height="296" viewBox="0 0 296 296" fill="none" xmlns="http://www.w3.org/2000/svg">
<circle cx="148" cy="148" r="148" fill="#FF974D"/>
<path d="M225.283 118.438C219.508 118.449 213.782 119.491 208.378 121.516C202.54 109.157 192.467 87.8736 192.467 87.8736C192.324 87.4994 192.294 87.0915 192.383 86.7008C192.471 86.3102 192.673 85.9541 192.964 85.677L203.684 76.9202C204.173 76.5548 204.568 76.079 204.836 75.5319C205.104 74.9848 205.237 74.3822 205.225 73.7737C205.193 73.1914 205.032 72.6234 204.754 72.1102C204.475 71.597 204.086 71.1514 203.614 70.8053L202.62 70.0533C201.673 69.3687 200.533 69 199.363 69C198.193 69 197.053 69.3687 196.106 70.0533L184.024 79.5126C183.775 79.7006 182.781 80.5021 182.035 80.9968C181.503 81.3608 181.098 81.8794 180.873 82.4816C180.649 83.0837 180.617 83.7401 180.782 84.361C180.946 85.0004 181.169 85.6231 181.448 86.2212L182.86 89.3776C182.945 89.5838 182.945 89.8147 182.86 90.0208C182.815 90.1059 182.751 90.18 182.674 90.2381C182.597 90.2962 182.508 90.3369 182.413 90.3572L117.407 109.533C117.165 109.531 116.929 109.455 116.732 109.315C116.534 109.175 116.385 108.978 116.303 108.751L110.128 90.3473C109.767 89.4088 109.166 88.5803 108.385 87.9434C107.603 87.3066 106.669 86.8835 105.673 86.716L107.831 86.2014C108.454 86.0112 109.021 85.6714 109.482 85.212C109.591 85.1031 110.754 84.0543 116.751 82.4216C118.311 82.1708 119.85 81.8037 121.355 81.3234C121.955 81.1132 122.477 80.7268 122.851 80.2154C123.226 79.7039 123.435 79.0915 123.453 78.4589C123.47 77.8263 123.294 77.2034 122.948 76.6725C122.602 76.1416 122.102 75.7277 121.514 75.4855C120.132 74.9445 118.705 74.5272 117.248 74.2388C116.767 74.1454 116.27 74.1623 115.796 74.2883C110.876 75.6534 105.798 76.3719 100.691 76.4255C98.1007 76.4887 95.5133 76.216 92.9939 75.6141C92.7574 75.5433 92.5141 75.4969 92.268 75.4756C91.8106 75.4756 91.1742 75.3965 90.5975 75.3965C88.0219 75.3965 86.1325 76.1781 84.9988 77.692C84.4832 78.4509 84.1289 79.3067 83.9579 80.2069C83.7869 81.107 83.8027 82.0324 84.0044 82.9263C83.9735 83.5648 84.07 84.2032 84.2884 84.8044C84.5069 85.4056 84.8429 85.9578 85.2772 86.429C86.7887 88.0716 89.5732 88.9125 93.5509 88.9125C95.0402 88.9134 96.527 88.7909 97.9959 88.5465L101.636 87.6757C101.487 87.8122 101.351 87.9612 101.228 88.121C100.906 88.6082 100.704 89.164 100.638 89.7433C100.573 90.3226 100.645 90.9092 100.85 91.4555L111.62 123.386C111.734 123.861 111.732 124.358 111.615 124.833C111.497 125.308 111.267 125.748 110.943 126.117L105.544 131.193C96.6051 122.985 84.8902 118.425 72.7275 118.418C45.8779 118.418 24.0004 140.355 24.0004 167.308C23.9469 179.721 28.6801 191.681 37.2247 200.725C45.7693 209.769 57.4745 215.207 69.9288 215.92C82.3831 216.633 94.6378 212.566 104.168 204.556C113.699 196.547 119.779 185.206 121.156 172.869L126.606 173.156C127.284 173.287 127.973 173.354 128.664 173.354C132.781 173.354 137.097 171.137 138.37 169.564L190.219 105.921L199.169 126.047L199.04 126.117C192.149 130.59 186.481 136.695 182.545 143.884C178.609 151.073 176.527 159.121 176.486 167.308C176.486 180.175 181.623 192.514 190.767 201.612C199.91 210.71 212.312 215.822 225.243 215.822C238.174 215.822 250.576 210.71 259.719 201.612C268.863 192.514 274 180.175 274 167.308C274.04 140.325 252.162 118.438 225.283 118.438ZM72.7573 204.938C62.7353 204.938 53.1237 200.976 46.037 193.925C38.9504 186.873 34.969 177.31 34.969 167.338C34.969 157.366 38.9504 147.802 46.037 140.751C53.1237 133.699 62.7353 129.738 72.7573 129.738C81.792 129.752 90.5112 133.045 97.28 138.999L78.1273 156.988C78.0546 157.072 77.9882 157.161 77.9284 157.255C76.3348 156.415 74.5608 155.97 72.7573 155.959C70.6365 155.933 68.5501 156.494 66.7302 157.577C64.9103 158.661 63.4281 160.226 62.4486 162.098C61.4691 163.97 61.0306 166.075 61.1819 168.18C61.3332 170.285 62.0683 172.307 63.3055 174.021C64.5427 175.736 66.2336 177.075 68.19 177.89C70.1464 178.705 72.2917 178.964 74.3872 178.639C76.4828 178.313 78.4466 177.415 80.0602 176.046C81.6737 174.676 82.8739 172.888 83.5271 170.88H83.6165L109.84 172.265C108.687 181.253 104.29 189.518 97.4675 195.519C90.6455 201.521 81.8635 204.851 72.7573 204.888V204.938ZM103.266 145.569C107.026 150.868 109.342 157.045 109.989 163.499L85.854 162.252L103.266 145.569ZM121.365 164.082C120.749 154.536 117.314 145.384 111.49 137.772L115.229 134.181L125.174 164.35L121.365 164.082ZM123.065 128.887C122.954 128.417 122.959 127.928 123.08 127.461C123.201 126.993 123.435 126.563 123.762 126.206L136.421 114.659C137.596 113.669 138.944 112.905 140.398 112.403L176.864 101.617L132.652 157.404L123.065 128.887ZM225.283 204.957C217.267 204.903 209.475 202.314 203.035 197.564C196.595 192.814 191.84 186.149 189.458 178.533C187.075 170.917 187.189 162.744 189.782 155.196C192.375 147.648 197.313 141.117 203.883 136.546L214.672 160.708C214.857 161.084 215.114 161.42 215.428 161.698C214.211 163.863 213.744 166.367 214.101 168.822C214.457 171.277 215.616 173.547 217.399 175.282C219.181 177.016 221.488 178.118 223.963 178.417C226.438 178.716 228.943 178.195 231.091 176.936C233.239 175.676 234.911 173.748 235.847 171.449C236.783 169.149 236.932 166.607 236.271 164.215C235.61 161.824 234.176 159.715 232.189 158.215C230.203 156.716 227.776 155.909 225.283 155.919C225.044 155.919 224.825 155.919 224.597 155.979C224.573 155.835 224.54 155.693 224.497 155.553L213.23 131.757C217.104 130.405 221.178 129.709 225.283 129.698C235.305 129.698 244.917 133.66 252.003 140.711C259.09 147.762 263.071 157.326 263.071 167.298C263.071 177.27 259.09 186.834 252.003 193.885C244.917 200.937 235.305 204.898 225.283 204.898V204.957Z" fill="white"/>
</svg>
