<svg width="252" height="149" viewBox="0 0 252 149" fill="none" xmlns="http://www.w3.org/2000/svg">
<path d="M202.41 50.05C196.603 50.061 190.845 51.1143 185.41 53.16C179.54 40.67 169.41 19.16 169.41 19.16C169.266 18.7817 169.237 18.3695 169.326 17.9747C169.415 17.5799 169.618 17.22 169.91 16.94L180.69 8.08997C181.182 7.72072 181.579 7.2398 181.848 6.68689C182.118 6.13398 182.252 5.52494 182.24 4.90997C182.208 4.32145 182.046 3.74738 181.766 3.22876C181.486 2.71014 181.094 2.25978 180.62 1.90997L179.62 1.14996C178.668 0.458094 177.522 0.0854492 176.345 0.0854492C175.168 0.0854492 174.022 0.458094 173.07 1.14996L160.92 10.71C160.67 10.9 159.67 11.71 158.92 12.21C158.385 12.5778 157.977 13.1019 157.752 13.7105C157.526 14.3191 157.494 14.9825 157.66 15.61C157.824 16.2561 158.049 16.8855 158.33 17.49L159.75 20.68C159.835 20.8883 159.835 21.1217 159.75 21.33C159.704 21.416 159.64 21.4909 159.563 21.5496C159.485 21.6083 159.395 21.6494 159.3 21.67L93.93 41.05C93.6864 41.0478 93.4493 40.9708 93.2508 40.8295C93.0523 40.6882 92.9019 40.4895 92.82 40.26L86.6101 21.66C86.2469 20.7115 85.6427 19.8741 84.857 19.2305C84.0714 18.5869 83.1314 18.1594 82.13 17.99L84.3 17.47C84.9269 17.2777 85.497 16.9343 85.96 16.47C86.07 16.36 87.24 15.3 93.27 13.65C94.8389 13.3965 96.3866 13.0254 97.9 12.54C98.5032 12.3276 99.0279 11.9371 99.4045 11.4202C99.7811 10.9033 99.992 10.2843 100.009 9.64502C100.027 9.0057 99.8496 8.37621 99.5015 7.83966C99.1535 7.30311 98.6509 6.8848 98.06 6.64001C96.6704 6.09318 95.2346 5.6715 93.77 5.38C93.2858 5.28566 92.7866 5.30275 92.31 5.42999C87.3626 6.80966 82.2558 7.5358 77.12 7.58997C74.5153 7.65389 71.9134 7.37823 69.38 6.76996C69.1421 6.69837 68.8975 6.6515 68.65 6.63C68.19 6.63 67.5501 6.54999 66.9701 6.54999C64.3801 6.54999 62.48 7.34 61.34 8.87C60.8215 9.63699 60.4653 10.5019 60.2933 11.4116C60.1213 12.3213 60.1373 13.2566 60.34 14.16C60.309 14.8053 60.406 15.4505 60.6257 16.0581C60.8454 16.6657 61.1833 17.2238 61.62 17.7C63.14 19.36 65.94 20.21 69.94 20.21C71.4377 20.2108 72.9328 20.0871 74.41 19.84L78.07 18.96C77.9207 19.0979 77.7835 19.2485 77.66 19.41C77.3364 19.9023 77.1334 20.4641 77.0673 21.0496C77.0013 21.6351 77.0741 22.2279 77.28 22.78L88.1101 55.05C88.2251 55.5309 88.2232 56.0324 88.1049 56.5125C87.9866 56.9926 87.7553 57.4375 87.43 57.81L82 62.94C73.0114 54.6454 61.2308 50.0367 49 50.03C22 50.03 -3.694e-05 72.2 -3.694e-05 99.44C-0.0538479 111.985 4.70585 124.072 13.2983 133.212C21.8908 142.352 33.6615 147.849 46.1856 148.569C58.7097 149.29 71.0331 145.179 80.6169 137.085C90.2007 128.99 96.315 117.528 97.7 105.06L103.18 105.35C103.862 105.483 104.555 105.55 105.25 105.55C109.39 105.55 113.73 103.31 115.01 101.72L167.15 37.4L176.15 57.74L176.02 57.81C169.09 62.3308 163.391 68.5005 159.433 75.7662C155.474 83.0318 153.381 91.1662 153.34 99.44C153.34 112.444 158.506 124.915 167.701 134.109C176.895 143.304 189.366 148.47 202.37 148.47C215.374 148.47 227.845 143.304 237.04 134.109C246.234 124.915 251.4 112.444 251.4 99.44C251.44 72.17 229.44 50.05 202.41 50.05ZM49.03 137.47C38.9518 137.47 29.2864 133.466 22.16 126.34C15.0336 119.214 11.03 109.548 11.03 99.47C11.03 89.3917 15.0336 79.7263 22.16 72.5999C29.2864 65.4735 38.9518 61.47 49.03 61.47C58.1153 61.4843 66.8834 64.8124 73.69 70.83L54.43 89.01C54.357 89.0951 54.2902 89.1853 54.2301 89.28C52.6275 88.4309 50.8435 87.9815 49.03 87.97C46.8973 87.9441 44.7992 88.5104 42.9691 89.6057C41.139 90.701 39.6485 92.2826 38.6635 94.1744C37.6785 96.0662 37.2376 98.1941 37.3897 100.322C37.5419 102.449 38.2811 104.492 39.5252 106.225C40.7694 107.957 42.4697 109.311 44.4371 110.134C46.4044 110.958 48.5617 111.22 50.669 110.891C52.7764 110.562 54.7511 109.655 56.3737 108.271C57.9963 106.886 59.2032 105.079 59.8601 103.05H59.95L86.32 104.45C85.1606 113.534 80.7389 121.886 73.8786 127.951C67.0183 134.017 58.1871 137.382 49.03 137.42V137.47ZM79.71 77.47C83.4908 82.8246 85.8198 89.0674 86.4701 95.59L62.2 94.33L79.71 77.47ZM97.91 96.18C97.2905 86.5322 93.8361 77.2821 87.9801 69.59L91.74 65.96L101.74 96.45L97.91 96.18ZM99.62 60.61C99.5076 60.1354 99.5126 59.6406 99.6346 59.1683C99.7566 58.6961 99.9919 58.2607 100.32 57.9L113.05 46.23C114.232 45.2304 115.588 44.4575 117.05 43.95L153.72 33.05L109.26 89.43L99.62 60.61ZM202.41 137.49C194.349 137.435 186.514 134.819 180.038 130.018C173.561 125.217 168.78 118.481 166.384 110.784C163.988 103.087 164.103 94.8272 166.71 87.1991C169.318 79.571 174.284 72.9699 180.89 68.35L191.74 92.77C191.926 93.1495 192.184 93.4892 192.5 93.77C191.276 95.9581 190.807 98.4884 191.165 100.97C191.523 103.451 192.689 105.746 194.482 107.498C196.274 109.251 198.594 110.365 201.083 110.667C203.572 110.969 206.091 110.443 208.251 109.17C210.411 107.897 212.092 105.948 213.033 103.625C213.975 101.301 214.124 98.7318 213.46 96.3145C212.795 93.8971 211.352 91.7659 209.355 90.2504C207.358 88.7349 204.917 87.9194 202.41 87.93C202.17 87.93 201.95 87.93 201.72 87.99C201.696 87.8446 201.663 87.701 201.62 87.56L190.29 63.51C194.185 62.1436 198.282 61.4405 202.41 61.43C212.488 61.43 222.154 65.4336 229.28 72.5599C236.407 79.6863 240.41 89.3518 240.41 99.43C240.41 109.508 236.407 119.174 229.28 126.3C222.154 133.426 212.488 137.43 202.41 137.43V137.49Z" fill="white"/>
</svg>
