<svg width="172" height="47" viewBox="0 0 172 47" fill="none" xmlns="http://www.w3.org/2000/svg">
<g id="&#229;&#150;&#174;&#232;&#187;&#138;&#231;&#175;&#128;logo">
<path d="M55.2776 13.1526H41.5604V13.1066L41.6913 12.3524C41.7468 12.0167 42.0324 11.773 42.3617 11.773H55.5513C55.8132 10.4071 56.0631 9.02746 56.2892 7.62943C56.6026 5.8037 56.9159 3.97797 57.2293 2.15224C57.2888 1.79813 57.5863 1.5452 57.9354 1.5452H60.974L59.2167 11.773H73.3981L73.2592 12.5731C73.2037 12.9089 72.9181 13.1526 72.5888 13.1526H59.0977C57.1619 34.2243 69.3836 39.4118 71.2917 40.4327L67.19 45.1833C65.2106 44.6682 56.3209 39.6142 56.9001 21.4443C52.8539 35.1487 46.1539 45.4178 36.5225 45.4178C46.146 42.4286 52.0169 29.1013 55.2737 13.1526H55.2776Z" fill="#FFF8F2"/>
<path d="M34.6224 24.3829C34.8247 23.9782 34.8564 23.4999 34.7057 23.0722L33.6267 19.9956" fill="#FFF8F2"/>
<path d="M34.6224 24.3829C33.4244 26.7789 27.498 35.5488 21.0003 40.3454C20.8694 40.4419 20.7147 40.258 20.8258 40.1384C26.6174 34.0496 32.9563 22.5526 33.6267 19.991" fill="#FFF8F2"/>
<path d="M26.9664 35.5304C26.2762 30.3521 26.2722 21.6328 27.9224 12.1133C27.9581 11.9063 28.0375 11.451 28.0732 11.2487H13.7569C13.4674 11.2487 13.2214 11.4602 13.1698 11.7546L11.353 22.3226H19.3819C19.7508 22.3226 20.0324 22.6675 19.969 23.04L17.8626 35.2867C16.9106 39.8303 13.6379 40.8834 9.89325 40.8834C12.5352 40.4741 13.4237 39.8303 14.2012 35.4016C14.8161 31.8238 15.4508 28.0252 16.0696 24.4197C16.1331 24.0472 15.8514 23.7069 15.4825 23.7069H11.5712C11.2816 23.7069 11.0317 23.923 10.9841 24.2127L8.87774 36.7169C8.47313 39.5682 5.86693 44.4475 0 46.3054C2.78867 43.6657 4.28813 41.1226 5.83123 33.254C6.48972 29.8923 9.01658 14.7208 9.76234 10.3703C9.81391 10.0806 10.0559 9.87364 10.3415 9.87364H27.7757C28.0811 9.87364 28.3429 9.6529 28.3945 9.34018C28.9023 6.37855 29.5012 2.89725 30.0011 0H33.6386L31.925 9.87364H35.8402L35.6855 10.7704C35.6379 11.0509 35.3999 11.2533 35.1262 11.2533H31.687L31.3537 13.1756C30.0804 20.2578 28.0772 39.6739 36.5661 40.8558L32.6231 46.2502C30.6397 45.004 28.1486 41.7434 26.9704 35.5304H26.9664Z" fill="#FFF8F2"/>
<path d="M35.511 7.59724L36.9033 8.44342L36.106 6.75105L32.401 1.46242L34.5312 8.98148L36.106 6.75105L35.511 7.59724Z" fill="#FFF8F2"/>
<path d="M36.6614 6.23139L32.401 1.46242L38.4464 5.21965L36.6614 6.23139Z" fill="#FFF8F2"/>
<path d="M90.3047 1.57739L90.0666 2.95703C89.7096 5.0311 89.2773 7.53745 88.8925 9.79547C88.7774 10.4577 88.3332 11.0004 87.7183 11.2349L84.8741 12.3064C84.9058 12.1363 84.9375 11.9615 84.9693 11.7868H81.9862C81.6649 11.7868 81.3793 12.0259 81.3277 12.357L81.3198 12.3938L77.4284 13.8608C77.5434 13.171 77.6664 12.4766 77.7814 11.7868C77.8647 11.3039 77.948 10.8256 78.0273 10.3427C78.4518 7.86856 78.8802 5.3944 79.3047 2.92484C79.3483 2.66271 79.3959 2.41438 79.4395 2.16604C79.499 1.82573 79.7886 1.57739 80.1298 1.57739H90.3086H90.3047ZM85.2152 10.3427C85.6397 7.86856 86.0681 5.3944 86.4886 2.92484H83.6087C83.2279 2.92484 82.8946 3.20537 82.8351 3.59627L81.6729 10.3427H85.2192H85.2152Z" fill="#FFF8F2"/>
<path d="M104.732 1.57739L104.498 2.95703C104.141 5.0311 103.709 7.53745 103.32 9.79547C103.209 10.4577 102.76 11.0004 102.15 11.2349L99.3054 12.3064C99.3371 12.1363 99.3649 11.9615 99.3966 11.7868H96.4175C96.0922 11.7868 95.8106 12.0259 95.7551 12.357V12.3938L91.8557 13.8608C91.9787 13.171 92.0937 12.4766 92.2127 11.7868C92.292 11.3039 92.3793 10.8256 92.4586 10.3427C92.8831 7.86856 93.3115 5.3944 93.732 2.92484C93.7756 2.66271 93.8232 2.41438 93.8669 2.16604C93.9303 1.82573 94.2199 1.57739 94.5571 1.57739H104.736H104.732ZM99.6465 10.3427C100.067 7.86856 100.495 5.3944 100.92 2.92484H98.04C97.6552 2.92484 97.3259 3.20537 97.2585 3.59627L96.0962 10.3427H99.6465Z" fill="#FFF8F2"/>
<path d="M101.051 14.615L98.5437 29.207L98.4961 29.5106C98.3811 30.1774 97.9289 30.7247 97.3101 30.9546L94.4222 32.0307C94.5015 31.5478 94.5888 31.065 94.6682 30.5867H94.3032V29.207C94.6483 29.207 94.9498 28.9495 95.0053 28.6C95.3108 26.8295 95.6162 25.0589 95.9177 23.2884H95.5528V21.9087C95.8979 21.9087 96.1954 21.6558 96.2549 21.3063C96.5603 19.5357 96.8658 17.7652 97.1633 15.9947H91.8795V14.615H101.051Z" fill="#FFF8F2"/>
<path d="M100.111 35.8983L99.9678 36.7399C99.9123 37.0526 99.6505 37.278 99.3411 37.278H88.1308C87.8056 37.278 87.5239 37.5171 87.4684 37.8482L86.4648 43.7071C86.3537 44.3555 85.9134 44.889 85.3144 45.1143L82.3988 46.1996C83.1207 41.9963 83.6007 39.2049 83.93 37.278H71.9145L72.0613 36.4364C72.1168 36.1237 72.3786 35.8983 72.684 35.8983H83.5611C83.9101 35.8983 84.2116 35.6408 84.2711 35.2913L85.0764 30.5867H84.7194V29.207C85.0645 29.207 85.362 28.9495 85.4215 28.6C85.723 26.8295 86.0284 25.0589 86.3299 23.2884H85.965V21.9087C86.314 21.9087 86.6115 21.6558 86.6671 21.3063C86.9725 19.5357 87.278 17.7652 87.5795 15.9947H82.2599V14.615H91.8835V15.9947C91.5026 15.9947 91.1694 16.2798 91.1099 16.6661L90.2055 21.9087H95.5567V23.2884H90.6379C90.2531 23.2884 89.9238 23.5735 89.8564 23.9598L88.9559 29.207H94.3032V30.5867H89.3209C88.9758 30.5867 88.6743 30.8442 88.6188 31.1937L87.8095 35.8983H100.115H100.111Z" fill="#FFF8F2"/>
<path d="M85.965 21.9087V23.2884H81.0064C80.6256 23.2884 80.2924 23.5735 80.225 23.9598L79.3245 29.207H84.7114V30.5867H79.0865L79.0032 31.1018C78.8921 31.7502 78.4478 32.2882 77.8488 32.5136L74.9372 33.5989C75.1078 32.5918 75.2823 31.5892 75.4529 30.5867C75.5322 30.1268 75.6116 29.6669 75.6909 29.207C76.032 27.2342 76.3692 25.2613 76.7064 23.2884C76.7818 22.8285 76.8651 22.3686 76.9444 21.9087C77.2816 19.9404 77.6227 17.9676 77.9559 15.9947L78.0948 15.2129C78.1543 14.868 78.4439 14.615 78.785 14.615H82.2639V15.9947C81.8791 15.9947 81.5499 16.2798 81.4825 16.6661L80.582 21.9087H85.965Z" fill="#FFF8F2"/>
<path d="M138.474 5.65194L138.331 6.49352C138.275 6.80624 138.014 7.03158 137.704 7.03158H135.189V5.65194H138.474Z" fill="#FFF8F2"/>
<path d="M135.189 5.65194V7.03158H131.552V5.65194H135.189Z" fill="#FFF8F2"/>
<path d="M134.138 11.773L131.004 30.0118C130.889 30.6787 130.437 31.2305 129.81 31.4513L126.938 32.4722L127.264 30.5867H126.907V29.207C127.252 29.207 127.541 28.9495 127.605 28.6046C127.989 26.3604 128.374 24.1162 128.759 21.8673H128.402V20.4877C128.747 20.4877 129.037 20.2348 129.1 19.8899C129.485 17.641 129.87 15.3968 130.255 13.1526H127.97V11.773H134.138Z" fill="#FFF8F2"/>
<path d="M134.13 35.9213L133.987 36.7629C133.932 37.0756 133.67 37.301 133.361 37.301H129.989V35.9213H134.13Z" fill="#FFF8F2"/>
<path d="M131.552 5.65194V7.03158H125.566C125.217 7.03158 124.919 7.28911 124.864 7.63862L124.15 11.773H124.507V13.1526C124.161 13.1526 123.872 13.4055 123.812 13.7504C123.507 15.5026 122.65 20.4877 122.65 20.4877H128.406V21.8673H123.011C122.666 21.8673 122.376 22.1249 122.313 22.4698L121.159 29.207H126.914V30.5867H121.52C121.174 30.5867 120.877 30.8396 120.821 31.1845L120.004 35.9213H126.355V37.301H120.365C120.024 37.301 119.731 37.5539 119.671 37.9034L118.663 43.7715C118.548 44.4245 118.1 44.9672 117.489 45.1833L114.601 46.2088C115.327 41.9825 115.803 39.2049 116.129 37.301H101.765L101.912 36.4594C101.967 36.1512 102.229 35.9213 102.534 35.9213H115.768C116.113 35.9213 116.41 35.6684 116.466 35.3189C116.74 33.7415 117.009 32.1641 117.283 30.5867H116.926V29.207C117.271 29.207 117.561 28.9495 117.624 28.6046C118.009 26.3604 118.394 24.1162 118.778 21.8673H118.421V20.4877C118.767 20.4877 119.064 20.2348 119.12 19.8899C119.504 17.641 119.889 15.3968 120.274 13.1526H119.909V11.773C120.258 11.773 120.556 11.52 120.611 11.1705L121.325 7.03158H111.571V5.65194H120.964C121.309 5.65194 121.607 5.399 121.666 5.04949C121.833 4.07914 122 3.11339 122.162 2.14764C122.222 1.79813 122.515 1.5452 122.86 1.5452H125.907L125.197 5.65194H131.552Z" fill="#FFF8F2"/>
<path d="M129.989 35.9213V37.301H126.347V35.9213H129.989Z" fill="#FFF8F2"/>
<path d="M127.974 11.773V13.1526L124.507 13.1526V11.773H127.974Z" fill="#FFF8F2"/>
<path d="M119.909 11.773V13.1526L114.514 13.1526C114.173 13.1526 113.879 13.4055 113.82 13.755L112.658 20.4877H118.418V21.8673H113.019C112.674 21.8673 112.384 22.1249 112.321 22.4698L111.166 29.207H113.451V30.5867H110.928L110.75 31.6352C110.635 32.302 110.182 32.8539 109.556 33.0746L106.684 34.0956L110.416 12.3754C110.476 12.0259 110.769 11.773 111.115 11.773H119.913H119.909Z" fill="#FFF8F2"/>
<path d="M116.918 29.207V30.5867H113.443V29.207H116.918Z" fill="#FFF8F2"/>
<path d="M111.567 5.65194V7.03158H108.092L108.239 6.1946C108.294 5.88188 108.556 5.65194 108.861 5.65194H111.567Z" fill="#FFF8F2"/>
<path d="M144.92 43.1782L143.274 44.1762L144.218 42.1803L148.593 35.9259L146.074 44.8108L144.218 42.1803L144.92 43.1782Z" fill="#FFF8F2"/>
<path d="M143.559 41.564L148.593 35.9259L141.453 40.3684L143.559 41.564Z" fill="#FFF8F2"/>
<path d="M162.794 6.9488H171.188C171.498 6.9488 171.759 6.72346 171.815 6.41074L171.958 5.56916H163.465C163.933 4.45625 164.31 3.17778 164.548 1.69696H161.616C160.87 7.14195 157.931 11.3085 155.17 12.4398C155.126 12.4582 155.142 12.5272 155.19 12.5134C157.257 12.0719 160.636 10.7796 162.798 6.9488H162.794Z" fill="#FFF8F2"/>
<path d="M167.146 13.8562L164.119 7.7168C167.146 8.494 168.312 9.71269 168.411 10.1542C168.594 10.9912 168.495 11.1659 167.15 13.8562H167.146Z" fill="#FFF8F2"/>
<path d="M159.621 38.7772C160.406 38.7772 166.388 38.8967 168.102 28.9035L170.557 14.6196H157.947C157.602 14.6196 157.304 14.8726 157.245 15.2221L151.925 46.1721L154.813 45.1465C155.424 44.9304 155.876 44.3877 155.987 43.7347L160.648 16.6017C160.708 16.2522 161.005 15.9993 161.35 15.9993H166.678L164.076 31.1477C162.893 37.7792 162.521 38.2759 159.621 38.7772Z" fill="#FFF8F2"/>
<path d="M146.824 7.00859H155.218C155.527 7.00859 155.789 6.78325 155.844 6.47053L155.987 5.62894H147.494C147.962 4.51603 148.339 3.23756 148.577 1.75675H145.646C144.9 7.20174 141.961 11.3683 139.2 12.4996C139.156 12.518 139.172 12.5869 139.22 12.5731C141.286 12.1317 144.666 10.8394 146.828 7.00859H146.824Z" fill="#FFF8F2"/>
<path d="M151.179 13.916L148.153 7.77659C151.179 8.55379 152.346 9.77247 152.445 10.214C152.627 11.0509 152.528 11.2257 151.183 13.916H151.179Z" fill="#FFF8F2"/>
<path d="M154.444 14.615L151.806 29.9888C151.691 30.6511 151.239 31.1937 150.624 31.4145L147.744 32.44C147.859 31.7594 147.966 31.1431 148.066 30.5867H147.693V29.207C148.042 29.207 148.343 28.9449 148.407 28.5908C148.49 28.1079 148.565 27.6848 148.625 27.3077C148.859 25.9695 149.085 24.6312 149.315 23.2884H148.946V21.9087C149.295 21.9087 149.597 21.6512 149.66 21.2971C149.962 19.5311 150.267 17.7652 150.569 15.9947H145.249V14.615H154.444Z" fill="#FFF8F2"/>
<path d="M148.946 21.9087V23.2884H143.996C143.646 23.2884 143.345 23.5505 143.286 23.9046L142.373 29.207H147.693V30.5867H142.746C142.393 30.5867 142.095 30.8442 142.032 31.1983L140.616 39.4394C140.235 42.1619 139.953 43.9508 142.163 45.1005C137.474 42.9023 136.962 39.421 137.918 33.9622L141.135 15.2267C141.195 14.8726 141.493 14.615 141.85 14.615H145.249V15.9947C144.9 15.9947 144.599 16.2522 144.535 16.6063L143.627 21.9087H148.946Z" fill="#FFF8F2"/>
</g>
</svg>
